<svg xmlns="http://www.w3.org/2000/svg" viewBox="0 0 32 32">
    <circle cx="16" cy="4" r="2.5" fill="#1e293b"/>
    <circle cx="4" cy="14" r="2.5" fill="#1e293b"/>
    <circle cx="28" cy="14" r="2.5" fill="#1e293b"/>
    <circle cx="8" cy="26" r="2.5" fill="#1e293b"/>
    <circle cx="24" cy="26" r="2.5" fill="#1e293b"/>
    <circle cx="16" cy="16" r="3" fill="#1e293b" opacity="0.6"/>
    <line x1="16" y1="4" x2="4" y2="14" stroke="#1e293b" stroke-width="1" opacity="0.4"/>
    <line x1="16" y1="4" x2="28" y2="14" stroke="#1e293b" stroke-width="1" opacity="0.4"/>
    <line x1="16" y1="4" x2="16" y2="16" stroke="#1e293b" stroke-width="1" opacity="0.4"/>
    <line x1="4" y1="14" x2="28" y2="14" stroke="#1e293b" stroke-width="1" opacity="0.4"/>
    <line x1="4" y1="14" x2="16" y2="16" stroke="#1e293b" stroke-width="1" opacity="0.4"/>
    <line x1="4" y1="14" x2="8" y2="26" stroke="#1e293b" stroke-width="1" opacity="0.4"/>
    <line x1="28" y1="14" x2="16" y2="16" stroke="#1e293b" stroke-width="1" opacity="0.4"/>
    <line x1="28" y1="14" x2="24" y2="26" stroke="#1e293b" stroke-width="1" opacity="0.4"/>
    <line x1="8" y1="26" x2="24" y2="26" stroke="#1e293b" stroke-width="1" opacity="0.4"/>
    <line x1="8" y1="26" x2="16" y2="16" stroke="#1e293b" stroke-width="1" opacity="0.4"/>
    <line x1="24" y1="26" x2="16" y2="16" stroke="#1e293b" stroke-width="1" opacity="0.4"/>
</svg>
